<svg id="Vrstva_1" xmlns="http://www.w3.org/2000/svg" viewBox="0 0 314 118"><style>.st0{fill:#2d2d2d}</style><path class="st0" d="M31.9 29v38.2c0 29-9.8 38.2-31.9 43.6 5.7 4 12.6 7.2 20 7.2 24.7 0 36-16.2 36-42.9V0C43.1 2.4 31.9 15.4 31.9 29zM161.4 0h-27.7L93 111h24.1l30.5-83.7C148.8 30.5 178 111 178 111h24L161.4 0z"/><path d="M143 68c2 10.9 12.9 19 24.4 19h25.9l-7-19H143z" fill="#b29a5e"/><path class="st0" d="M278.7 50.2h-16V18.3h16c8.9 0 14.5 7.1 14.5 16s-5.8 15.9-14.5 15.9zM279.9 0H240v111c12.9-2.3 22.6-13.6 22.6-24.6v-18h17.2c18.9 0 34.2-15.3 34.2-34.2.1-18.9-15.2-34.2-34.1-34.2z"/></svg>