<svg viewBox="0 0 161 34" fill="none" xmlns="http://www.w3.org/2000/svg">
	<path d="M1.29502 2.0877H39.9367V32.2153H30.8437V7.75151H10.3741V32.2293H1.28109V2.0877H1.29502ZM0 0.755859V33.5471H11.6969V9.06933H29.5208L16.2643 14.2985V33.5471H41.2456V0.755859H0Z" fill="#00713C"/>
	<path fill-rule="evenodd" clip-rule="evenodd" d="M50.5057 11.7047H57.0644C58.4708 11.7047 59.4734 12.2234 60.2253 13.3449C60.8659 14.2842 61.1722 15.4058 61.1722 16.8918C61.1722 20.6771 59.4595 22.4996 56.0757 22.4996H53.5971V29.9298H50.5057V11.7047ZM53.5971 14.4244V19.7938H55.5883C56.3542 19.7938 57.0087 19.4854 57.4264 18.7844C57.7188 18.2657 57.8442 17.5507 57.8442 16.5974C57.8442 15.7142 57.6631 15.0833 57.3011 14.7749C56.953 14.5927 56.4795 14.4244 55.839 14.4244H53.5971ZM129.599 23.6351C129.599 29.1868 126.383 30.3083 123.974 30.3083C121.565 30.3083 118.223 29.2429 118.223 23.6351V17.719C118.223 12.0552 121.565 11.3682 124.085 11.3682C126.383 11.3682 129.655 12.1112 129.655 17.719L129.599 23.6351ZM121.579 17.2423V24.3922C121.579 25.9343 122.094 27.4624 123.988 27.4624C125.853 27.4624 126.397 25.9203 126.397 24.3922V17.2423C126.397 15.7703 125.923 14.2422 124.043 14.2422C122.038 14.2422 121.579 15.7843 121.579 17.2423ZM73.9692 23.6351C73.9692 29.1868 70.7526 30.3083 68.3436 30.3083C65.9345 30.3083 62.5926 29.2429 62.5926 23.6351V17.719C62.5926 12.0552 65.9346 11.3682 68.455 11.3682C70.7526 11.3682 74.0249 12.1112 74.0249 17.719L73.9692 23.6351ZM65.9485 17.2423V24.3922C65.9485 25.9343 66.4637 27.4624 68.3575 27.4624C70.2234 27.4624 70.7665 25.9203 70.7665 24.3922V17.2423C70.7665 15.7703 70.293 14.2422 68.4132 14.2422C66.408 14.2422 65.9485 15.7843 65.9485 17.2423ZM76.9074 11.7047H80.0126V27.2802H86.0004V29.9438H76.9074V11.7047ZM84.7332 21.1537H90.3032V23.8174H84.7332V21.1537ZM99.9531 17.3685C100.468 11.5364 93.1438 14.1861 97.3074 17.719C98.4214 18.6723 99.6607 19.7237 100.886 20.7331C102.306 21.8547 103.239 23.6772 103.239 24.3922V25.4016C103.239 32.1309 91.6121 32.8318 92.7957 23.6772H96.0124C96.0124 24.9249 95.901 25.8081 96.6111 26.9297C97.4327 27.9811 98.9505 27.9251 99.6607 26.8596C100.134 26.1586 100.051 24.8548 99.5911 24.1959C98.7138 22.3734 96.5555 21.7846 94.787 19.892C93.6034 18.6583 92.7957 17.9433 92.7957 15.7002C92.7957 11.228 98.0593 10.3448 100.886 12.0411C102.362 12.9244 102.877 14.5226 102.877 16.8217V17.3685H99.9531ZM105.941 11.7047H109.046V19.906H109.102C109.575 18.8405 110.16 17.4806 110.982 15.7843C111.678 14.4244 112.388 13.0646 113.084 11.7187H116.663L112.444 19.6256L116.844 29.9579H113.21L110.216 22.8641L109.046 24.8688V29.9579H105.941V11.7047ZM132.802 11.7047H135.907L140.308 23.1585V11.7047H143.65V29.9438H140.363L135.907 18.6723V29.9438H132.802V11.7047ZM146.824 11.7047H155.862V14.4244H150.111V19.205H155.374V21.9668H150.111V27.2802H155.862V29.9438H146.824V11.7047Z" fill="#00713C"/>
	<path fill-rule="evenodd" clip-rule="evenodd" d="M158.814 7.68127C157.755 7.68127 156.892 8.55046 156.892 9.61593C156.892 10.1487 157.101 10.6253 157.449 10.9758C157.797 11.3263 158.271 11.5366 158.8 11.5366C159.329 11.5366 159.802 11.3263 160.15 10.9758C160.499 10.6253 160.707 10.1487 160.707 9.61593C160.707 9.0832 160.499 8.60654 160.15 8.25606C159.816 7.90558 159.343 7.68127 158.814 7.68127ZM158.814 7.40088C159.412 7.40088 159.969 7.65323 160.359 8.04577C160.763 8.45233 161 8.99908 161 9.60191C161 10.2047 160.749 10.7655 160.359 11.1581C159.969 11.5646 159.412 11.803 158.814 11.803C158.215 11.803 157.658 11.5506 157.268 11.1581C156.864 10.7515 156.627 10.2047 156.627 9.60191C156.627 8.39625 157.602 7.40088 158.814 7.40088ZM158.201 9.60191H159.092C159.259 9.60191 159.385 9.54584 159.454 9.47574C159.524 9.40564 159.58 9.30751 159.58 9.1533C159.58 9.02712 159.524 8.92899 159.482 8.85889C159.412 8.76075 159.287 8.70468 159.134 8.70468H158.201V9.60191ZM157.853 11.0459V8.39625H159.106C159.329 8.39625 159.524 8.45233 159.677 8.59252C159.844 8.7187 159.928 8.88693 159.928 9.13928C159.928 9.26545 159.928 9.39162 159.872 9.46172C159.802 9.58789 159.705 9.68603 159.58 9.75613C159.677 9.78416 159.747 9.85426 159.802 9.9524C159.872 10.0786 159.9 10.2748 159.9 10.5412C159.9 10.6954 159.9 10.7936 159.928 10.8637C159.928 10.9337 159.983 10.9898 160.025 11.0179V11.0459H159.58C159.58 10.9758 159.552 10.7795 159.552 10.4291C159.552 10.1066 159.385 9.93838 159.078 9.93838H158.187V11.0459H157.853Z" fill="#00713C"/>
</svg>
